<svg width="48" height="48" viewBox="0 0 48 48" fill="none" xmlns="http://www.w3.org/2000/svg">
<path fill-rule="evenodd" clip-rule="evenodd" d="M24 11.5202C20.9043 11.5202 17.9991 12.2686 16.3506 13.5636C15.8077 13.9901 15.0219 13.8957 14.5955 13.3529C14.169 12.81 14.2634 12.0242 14.8062 11.5977C17.0793 9.81206 20.6349 9.02017 24 9.02017C27.3651 9.02017 30.9207 9.81206 33.1937 11.5977C33.7366 12.0242 33.831 12.81 33.4045 13.3529C32.978 13.8957 32.1922 13.9901 31.6493 13.5636C30.0008 12.2686 27.0957 11.5202 24 11.5202Z" fill="#26D997"/>
<path fill-rule="evenodd" clip-rule="evenodd" d="M9.25 18V14.4161C9.5082 13.8613 10.4189 12.1639 12.5103 10.5657C14.7107 8.88429 18.2984 7.25 24 7.25C29.7016 7.25 33.2893 8.88429 35.4897 10.5657C37.5811 12.1639 38.4918 13.8613 38.75 14.4161V18C38.75 18.6904 39.3096 19.25 40 19.25C40.6904 19.25 41.25 18.6904 41.25 18V14.338C41.25 14.0837 41.2086 13.7938 41.078 13.497C40.769 12.7945 39.652 10.6001 37.0076 8.57929C34.3463 6.54567 30.2179 4.75 24 4.75C17.7821 4.75 13.6537 6.54567 10.9924 8.57929C8.34796 10.6001 7.23099 12.7945 6.92199 13.497C6.79142 13.7938 6.75 14.0837 6.75 14.338V18C6.75 18.6904 7.30964 19.25 8 19.25C8.69036 19.25 9.25 18.6904 9.25 18ZM6.97815 24.25C6.81495 25.1155 6.12256 25.794 5.25 25.9366V29.4643H5.47479C6.30782 29.4643 7.01517 30.0024 7.26818 30.75H8.75V24.25H6.97815ZM4.54648 23.4906C4.71996 22.5016 5.58313 21.75 6.62185 21.75H9C10.2426 21.75 11.25 22.7574 11.25 24V31C11.25 32.2426 10.2426 33.25 9 33.25H6.7605C5.92747 33.25 5.22013 32.7119 4.96712 31.9643H4.85714C3.6934 31.9643 2.75 31.0209 2.75 29.8571V25.5966C2.75 24.5333 3.52839 23.6517 4.54648 23.4906ZM41.0219 30.75C41.1851 29.8845 41.8774 29.206 42.75 29.0634V25.5357H42.5252C41.6922 25.5357 40.9848 24.9976 40.7318 24.25H39.25V30.75H41.0219ZM43.4535 31.5094C43.28 32.4984 42.4169 33.25 41.3782 33.25H41.25V36.7172L33.4965 41.25H30.2363C30.1119 42.375 29.1581 43.25 28 43.25H22C20.7574 43.25 19.75 42.2426 19.75 41V39C19.75 37.7574 20.7574 36.75 22 36.75H28C29.1581 36.75 30.1119 37.625 30.2363 38.75H32.8193L38.75 35.2828V33.2363C37.625 33.1119 36.75 32.1581 36.75 31V24C36.75 22.7574 37.7574 21.75 39 21.75H41.2395C42.0725 21.75 42.7799 22.2881 43.0329 23.0357H43.1429C44.3066 23.0357 45.25 23.9791 45.25 25.1429V29.4034C45.25 30.4667 44.4716 31.3483 43.4535 31.5094ZM22.25 40.75V39.25H27.75V40.75H22.25Z" fill="#272C35"/>
</svg>
